<svg width="1019" height="1024" viewBox="0 0 1019 1024" fill="none" xmlns="http://www.w3.org/2000/svg">
<path d="M34.7559 31.1328C266.236 40.1993 519.904 32.0116 753.346 33.7334C768.522 42.9131 779.428 54.7932 791.986 67.208C853.792 64.3173 928.849 67.0678 994.849 65.2871C959.021 105.327 902.395 123.864 871.191 163.841C871.486 199.323 869.018 226.889 865.313 261.945C858.914 322.547 860.313 375.07 849.005 435.608C813.032 469.07 697.337 563.671 650.979 588.769C622.674 604.092 450.671 579.318 414.63 598.737C407.316 602.675 403.177 641.867 401.7 652.47C396.859 688.736 394.023 723.067 384.861 758.558C321.887 818.135 251.083 872.834 186.877 931.501C160.618 955.492 131.126 982.37 102.657 1003C115.184 957.494 122.612 893.585 129.441 845.716C141.058 761.023 153.703 676.475 167.366 592.09C131.611 590.096 83.4957 592.86 47.2012 589.924C44.8507 587.785 42.8444 585.959 41.1914 584.45L41.001 578.624C50.1809 567.161 79.8039 544.402 92.9424 533.251C124.219 506.962 154.681 479.718 184.281 451.558C184.671 403.606 195.581 364.254 203.471 317.372C209.734 280.159 214.933 238.565 217.94 200.999C195.242 181.185 36.1558 49.1033 31.7031 37.3584L34.7559 31.1328ZM188.976 79.4688C219.02 125.308 256.646 143.088 290.246 182.19C277.678 252.285 266.058 322.542 255.379 392.949C251.828 416.334 249.812 442.078 245.836 464.552C283.177 438.585 369.321 384.802 397.061 354.15C460.438 284.124 346.192 213.341 503.036 218.66C566.893 218.719 641.177 220.459 704.296 217.347C731.868 199.671 765.603 171.244 788.932 147.837C771.745 121.308 747.651 101.517 721.786 83.5518L188.976 79.4688Z" fill="#191B2E"/>
<path d="M810.721 187.113C811.903 188.785 813.085 190.457 814.267 192.134C809.738 253.574 795.187 351.542 790.658 408.429C764.613 432.049 665.643 507.353 636.273 526.995L374.154 526.116C360.033 592.01 346.121 675.371 328.902 738.632C307.281 759.715 220.19 824.046 193.945 841.857C193.819 841.726 193.665 841.621 193.574 841.472C187.342 831.209 237.912 554.756 242.866 524.77C299.546 482.959 366.279 428.773 422.636 390.001C503.21 388.946 587.112 390.395 667.934 390.708C673.962 353.59 680.466 316.559 687.454 279.613C728.336 248.503 769.427 217.666 810.721 187.113Z" fill="#19657A"/>
</svg>
