<svg width="4522" height="1024" viewBox="0 0 4522 1024" fill="none" xmlns="http://www.w3.org/2000/svg">
<g clip-path="url(#clip0_201_2)">
<path d="M2.43652 31.1328C234.028 40.1993 487.818 32.0116 721.371 33.7334C736.555 42.9131 747.466 54.7932 760.03 67.208C821.866 64.3173 896.959 67.0678 962.99 65.2871C927.145 105.327 870.492 123.864 839.273 163.841C839.568 199.323 837.099 226.889 833.393 261.945C826.99 322.547 828.39 375.07 817.076 435.608C781.086 469.07 665.335 563.672 618.955 588.769C590.635 604.092 418.551 579.318 382.493 598.737C375.175 602.675 371.034 641.867 369.557 652.47C364.713 688.736 361.876 723.067 352.71 758.558C289.706 818.135 218.867 872.834 154.63 931.501C128.359 955.492 98.8531 982.37 70.3711 1003C82.9039 957.495 90.3342 893.585 97.167 845.716C108.789 761.023 121.44 676.475 135.11 592.09C99.3376 590.096 51.1996 592.86 14.8877 589.924C12.5361 587.785 10.5288 585.959 8.875 584.45L8.68457 578.624C17.869 567.161 47.5066 544.402 60.6514 533.251C91.9429 506.962 122.419 479.718 152.034 451.558C152.424 403.606 163.339 364.254 171.232 317.372C177.499 280.159 182.7 238.565 185.709 200.999C162.999 181.185 3.8388 49.1041 -0.617188 37.3584L2.43652 31.1328ZM156.73 79.4688C186.79 125.309 224.434 143.088 258.05 182.19C245.476 252.285 233.849 322.542 223.165 392.949C219.613 416.333 217.596 442.078 213.618 464.552C250.977 438.585 337.162 384.802 364.915 354.15C428.323 284.124 314.022 213.341 470.941 218.66C534.829 218.719 609.148 220.459 672.298 217.347C699.883 199.671 733.634 171.244 756.974 147.837C739.778 121.308 715.674 101.517 689.797 83.5518L156.73 79.4688Z" fill="#191B2E"/>
<path d="M778.775 187.113C779.958 188.785 781.141 190.457 782.323 192.134C777.792 253.574 763.234 351.542 758.703 408.429C732.645 432.049 633.627 507.353 604.243 526.995L341.999 526.116C327.871 592.01 313.952 675.371 296.725 738.632C275.094 759.715 187.961 824.046 161.704 841.857C161.577 841.726 161.423 841.621 161.332 841.472C155.097 831.209 205.691 554.756 210.648 524.77C267.354 482.959 334.12 428.773 390.504 390.001C471.116 388.946 555.059 390.395 635.92 390.708C641.951 353.59 648.458 316.559 655.449 279.613C696.351 248.503 737.461 217.666 778.775 187.113Z" fill="#19657A"/>
<path d="M4223.63 312.984C4315.16 312.512 4425.08 310.165 4515.39 313.727C4500.7 341.701 4456.39 396.032 4435.19 419.951C4386.2 421.401 4335.96 418.052 4286.84 420.241C4276.01 420.721 4269.8 422.479 4264.77 431.989L4267.13 438.659C4294.68 460.598 4388.29 444.631 4422.09 451.5C4439.49 455.034 4519.01 557.149 4511.58 571.004C4499.39 593.718 4445.06 680.319 4425.81 690.423C4380.45 692.733 4329.07 691.306 4283.17 691.981C4235.28 692.688 4184.16 694.473 4136.77 693.182C4207.82 599.051 4196.13 574.964 4325.76 584.806C4341.07 585.97 4375.87 587.941 4390.15 584.276L4392.59 579.849L4389.15 572.006C4360.88 545.993 4277.82 566.464 4243.93 558.141C4217.38 551.63 4154.94 451.518 4138.49 425.836C4155.71 397.128 4199.84 332.702 4223.63 312.984Z" fill="#191B2E"/>
<path d="M1006.06 312.881C1089.41 313.235 1176.97 309.465 1259.45 315.926C1274.67 317.12 1348.65 432.422 1360.34 452.848C1344.32 489.177 1303.6 554.69 1279.07 586.348C1269.13 587.132 1257.49 587.355 1247.38 587.808C1119.02 588.787 1110.76 553.082 1114.67 689.655C1094.6 693.859 1020.13 698.92 1004.68 685.029C1001.95 647.734 999.78 332.469 1006.06 312.881ZM1127.33 430.442C1122.91 437.048 1116.82 444.225 1120.11 452.608C1126.11 467.877 1119.23 481.837 1126.63 492.163C1139.11 499.911 1226.81 496.182 1246.73 495.933C1253.74 480.242 1222.94 443.7 1211.55 430.542C1183.03 430.995 1155.89 431.429 1127.33 430.442Z" fill="#191B2E"/>
<path d="M2926.84 313.401C2963.67 311.974 3225.4 309.332 3238.55 316.899C3235.26 338.929 3193.56 378.729 3182.12 399.077C3154.09 448.968 3076.91 400.079 3036.91 429.911C3032.35 439.281 3033.06 435.076 3034.81 446.014C3062.49 477.069 3164.98 439.661 3186.69 468.206C3186.69 484.047 3137.56 538.31 3123.88 554.617C3096.41 554.413 3067.76 553.728 3040.45 555.468L3034.28 567.077C3034.44 571.313 3033.7 574 3036.72 577.262C3052.01 593.778 3225.16 585.835 3258.15 586.646C3238.75 612.029 3196.39 672.041 3176.81 691.629C3140.96 691.402 2949.27 695.466 2928.23 688.262C2922.23 669.268 2921.19 332.042 2926.84 313.401Z" fill="#191B2E"/>
<path d="M2600.95 313.358C2681.04 311.115 2810.21 309.733 2888.37 313.72C2872.65 338.704 2827.51 395.813 2807.72 417.534C2605.74 424.435 2627.27 367.286 2629.38 586.236C2699.03 588.882 2774.71 586.476 2844.8 585.443C2861.76 585.62 2895.16 583.508 2907.56 593.784C2905.78 605.297 2853.73 679.007 2841.04 691.35C2831.95 692.211 2822.88 692.238 2813.77 692.138C2738.64 691.313 2663.38 693.294 2588.29 690.407C2509.34 598.918 2517.95 538.384 2521.7 421.494C2522.44 398.413 2581.64 332.053 2600.95 313.358Z" fill="#191B2E"/>
<path d="M1518.57 307.789C1527.74 308.532 1533.86 311.545 1538.28 319.751C1548.8 339.243 1558.61 359.116 1568.89 378.744L1628.42 490.125C1656.98 543.332 1713.17 639.135 1736.61 691.336C1703.66 694.349 1659.13 691.345 1625.14 691.735C1571.94 692.346 1518.69 693.185 1465.49 693.638C1490.19 662.338 1540 625.936 1566 593.254C1569.75 588.533 1566.99 583.807 1565.31 578.103C1552.85 556.331 1538.68 529.626 1522.66 510.962C1488.06 565.891 1459.43 637.626 1424.65 690.267C1403.34 692.251 1322.52 699.424 1306.7 687.766C1306.35 679.746 1356.73 597.327 1363.75 585.103C1416.24 493.169 1467.86 400.724 1518.57 307.789Z" fill="#191B2E"/>
<path d="M1619.25 313.168C1637.74 311.265 1717.09 309.163 1729.09 317.382C1757.14 336.603 1802.35 479.809 1828.44 491.032C1850.22 483.438 1906.43 342.692 1927.68 321.614C1944.5 304.936 2027.1 312.185 2051.07 313.178C2024.87 357.427 1999.84 402.374 1976.03 447.96C1960.3 476.99 1842.03 694.563 1831.77 703.67L1825.91 702.189C1817.88 694.844 1621.51 327.785 1619.25 313.168Z" fill="#191B2E"/>
<path d="M3276.59 312.427C3290.65 312.114 3342.59 309.305 3352.24 315.785C3380.95 335.059 3423.93 483.779 3445.5 492.742C3467.33 483.671 3525.21 343.111 3549.69 320.886C3566.49 305.649 3638.1 311.951 3663.39 312.472C3657.45 329.377 3599.3 429.426 3587.17 451.152C3565.91 490.404 3462.71 683.401 3443.44 701.796L3437.64 700.917C3417.7 681.479 3298.34 436.766 3275.8 395.434C3263.43 372.734 3266.5 337.438 3276.59 312.427Z" fill="#191B2E"/>
<path d="M3816.56 313.594C3857.43 310.405 4118.6 308.388 4140.94 315.285C4145.52 316.694 4145.25 317.138 4147.42 321.338C4136.59 341.306 4090.65 400.684 4074.56 417.875L4036.32 420.648C4032.33 470.013 4034.33 539.803 4034.6 590.822C4034.42 617.441 4037.18 648.048 4036.37 673.417C4035.46 703.104 3947.51 695.048 3930.79 688.89C3912.76 668.714 3938.36 471.472 3924.68 430.285C3916.43 405.342 3840.9 426.95 3817.56 415.12C3808.59 402.827 3809.36 323.721 3816.56 313.594Z" fill="#191B2E"/>
<path d="M2151.63 308.621L2158.05 312.925C2167.83 330.9 2152.66 542.687 2159.63 576.637C2166.44 609.849 2334.72 560.675 2343.72 603.995C2339.29 624.434 2298.09 674.456 2280.5 689.504L2249.57 692.222C2211.55 692.172 2077.87 697.034 2053.54 687.823C2041.9 674.819 2048.67 445.135 2050 411.361C2065.15 391.923 2132.61 324.461 2151.63 308.621Z" fill="#191B2E"/>
<path d="M3775.55 305.559C3787.28 316.025 3782.21 421.393 3782.07 443.332L3781.12 690.85C3750.08 694.28 3708.17 693.238 3676.15 693.315C3661.76 676.537 3669.17 607.249 3669.92 582.813C3671.7 526.376 3672.84 469.915 3673.35 413.446C3686.55 394.47 3756.56 321.132 3775.55 305.559Z" fill="#191B2E"/>
<path d="M2476.54 312.02C2488.15 324.244 2482 424.428 2481.76 448.973L2481.23 691.606C2451.95 694.284 2410.3 693.265 2380.06 693.378L2375.9 690.22C2372.19 674.873 2374.09 605.717 2374.41 587.331L2377.08 409.739C2393.62 389.753 2456.59 328.657 2476.54 312.02Z" fill="#191B2E"/>
</g>
<defs>
<clipPath id="clip0_201_2">
<rect width="4522" height="1024" fill="white"/>
</clipPath>
</defs>
</svg>
