<svg width="1095" height="328" viewBox="0 0 1095 328" fill="none" xmlns="http://www.w3.org/2000/svg">
<path d="M342.409 67.5742C343.914 79.9324 349.916 105.557 352.581 118.603L373.287 219.734L345.218 219.759C343.835 209.927 341.683 198.757 339.965 188.88L338.938 187.504C333.9 186.712 315.5 187.077 309.477 187.072L303.79 219.721L277.344 219.732C279.952 204.337 283.798 186.878 286.847 171.423L307.63 67.5195L342.409 67.5742ZM324.359 100.895C319.994 121.431 317.452 143.684 313.285 164.462L325.185 164.405L335.7 164.349C334.151 156.144 326.008 103.807 324.359 100.895Z" fill="#002429"/>
<path d="M195.791 67.5703C212.503 67.5824 231.205 66.9084 247.743 68.3369C256.503 69.0928 265.071 73.0271 270.535 80.4834C278.999 92.0324 278.205 121.013 276.153 135.026C271.037 169.975 228.735 158.172 222.66 162.427L222.31 164.633L222.437 219.692L195.777 219.691L195.791 67.5703ZM244.308 92.5938C239.366 89.8056 228.238 90.5688 222.334 90.6738C222.368 106.292 222.204 122.394 222.518 137.974C230.539 138.064 240.679 139.343 247.12 134.626C251.992 126.854 253.831 97.9649 244.308 92.5938Z" fill="#002429"/>
<path d="M1046.8 66.3244C1062.84 64.5589 1082.88 67.4462 1090.1 84.0307C1094.82 94.8914 1093.8 109.097 1093.78 120.907C1085.4 121.201 1075.68 120.979 1067.19 120.997C1067.3 114.049 1067.6 107.439 1067 100.399C1067.61 86.8334 1047.35 84.3277 1043.22 94.5557C1036.81 110.452 1042.18 121.569 1055.86 128.646C1069.11 136.213 1092.03 144.706 1093.19 162.805C1095.17 193.862 1098.09 215.214 1062.54 221.047C1059.43 221.146 1056.31 221.205 1053.19 221.225C1011.78 221.296 1014.79 194.703 1015.05 163.353L1041.13 163.17C1041.07 170.808 1040.78 178.205 1041.24 185.949C1042.05 199.684 1057.76 202.71 1065.38 192.871C1068.62 188.252 1067.7 176.982 1067.02 171.87C1065.37 161.5 1053.1 156.519 1044.81 151.938C1032.46 145.105 1016.92 137.852 1015.64 121.55C1013.42 93.1827 1013.32 71.0966 1046.8 66.3244Z" fill="#002429"/>
<path d="M633.955 66.3702C652.129 64.2135 673.936 68.574 679.399 88.7847C682.349 99.7022 681.37 114.259 681.308 125.733L654.634 125.731C654.858 114.361 658.624 89.3197 642.999 89.1892C631.188 89.0902 627.699 92.9773 627.67 104.535C627.604 131.255 627.15 157.894 627.874 184.576C627.869 194.833 633.513 198.709 643.325 198.102C658.013 197.191 654.899 177.117 654.717 166.521L654.698 158.306L681.196 158.319C681.322 169.35 681.764 181.125 681.027 192.039C680.003 207.224 668.971 218.879 653.53 220.588C593.478 227.235 600.725 191.098 601.138 147.136C601.295 130.521 600.261 112.21 601.497 95.4444C603.247 76.1658 616.911 68.6078 633.955 66.3702Z" fill="#002429"/>
<path d="M845.513 67.582L872.496 67.5977C869.956 79.6974 867.481 91.8103 865.071 103.937L842.216 219.722L811.022 219.76C799.943 169.964 790.651 117.678 780.543 67.5905L808.195 67.5832C808.932 76.4998 812.723 95.0248 814.363 104.558L827.121 178.488C831.682 142.218 841.005 103.763 845.513 67.582Z" fill="#002429"/>
<path d="M369.273 67.5352L396.82 67.5956C403.91 101.688 409.818 142.852 415.889 177.637L434.416 67.5726L461.076 67.598C458.579 79.6988 456.169 91.8166 453.844 103.951C450.6 118.316 447.798 135.168 444.952 149.793L431.006 219.724L400.013 219.781L369.273 67.5352Z" fill="#002429"/>
<path d="M698.994 67.5586L770.003 67.5936L770.084 90.7267L725.714 90.694L725.728 130.187L762.865 130.191L762.916 153.529L725.721 153.465L725.729 184.224L725.758 196.337L771.106 196.294L771.168 219.711H698.988L698.994 67.5586Z" fill="#002429"/>
<path d="M924.164 67.588L1004.95 67.582L1004.74 90.7658L977.855 90.7175L977.904 192.419L977.807 219.69L951.072 219.716L951.084 90.7561L924.186 90.7525L924.164 67.588Z" fill="#002429"/>
<path d="M473.289 67.5625L499.953 67.5975L499.904 195.965L542.094 195.933L542.167 219.704L473.25 219.714L473.289 67.5625Z" fill="#002429"/>
<path d="M555.582 67.6106L581.991 67.6094L581.957 219.695L555.68 219.704L555.582 67.6106Z" fill="#002429"/>
<path d="M885.074 67.6055L911.434 67.6151L911.444 219.692L885.138 219.723L885.074 67.6055Z" fill="#002429"/>
<path d="M385.197 256.716C399.193 254.812 412.133 264.473 414.284 278.434C416.434 292.393 407.001 305.501 393.08 307.896C383.856 309.482 374.492 305.969 368.591 298.704C362.688 291.44 361.166 281.556 364.608 272.852C368.051 264.148 375.923 257.978 385.197 256.716ZM408.62 277.952C406.215 266.927 395.333 259.936 384.306 262.329C373.262 264.726 366.257 275.626 368.666 286.667C371.075 297.709 381.982 304.702 393.021 302.282C404.044 299.866 411.026 288.977 408.62 277.952Z" fill="#0A383D"/>
<path d="M273.773 256.765C288.007 254.759 301.145 264.746 303.021 278.997C304.897 293.248 294.79 306.293 280.522 308.038C266.438 309.761 253.597 299.814 251.744 285.746C249.893 271.678 259.722 258.746 273.773 256.765ZM297.213 277.749C294.695 266.789 283.78 259.939 272.816 262.436C261.824 264.94 254.952 275.89 257.476 286.878C260.001 297.864 270.963 304.717 281.945 302.174C292.9 299.635 299.731 288.707 297.213 277.749Z" fill="#0A383D"/>
<path d="M431.252 257.556C438.248 257.463 451.408 256.63 457.762 258.447C474.83 263.331 474.714 282.339 459.491 289.926C461.423 292.699 469.909 304.37 470.463 306.666L466.173 308.139C463.17 305.475 456.792 294.864 454.428 291.125L436.837 291.183C436.822 294.439 437.454 303.892 436.434 306.215C434.025 307.345 435.099 307.176 432.326 306.709C430.26 304.276 431.216 263.875 431.252 257.556ZM461.357 266.211C454.609 261.492 445.216 262.283 437.377 262.474C436.378 265.528 436.801 281.748 436.82 286.148C444.225 286.262 454.777 287.45 460.89 283.327C465.063 278.166 467.976 270.837 461.357 266.211Z" fill="#0A383D"/>
<path d="M499.639 257.123C504.619 256.895 514.164 257.668 518.048 260.733C518.609 263.06 518.368 262.407 516.978 265.184C514.586 265.72 506.911 261.784 503.445 261.701C497.599 261.559 490.39 264.59 490.154 271.289C492.804 279.768 510.548 279.631 516.904 285.416C522.015 289.39 522.588 294.136 519.567 299.843C515.932 306.71 508.507 307.477 501.595 307.747C495.586 307.477 490.167 306.042 485.24 302.559C484.154 300.042 484.293 301.126 484.671 298.454C488.351 295.51 497.179 304.884 504.217 303.043C506.811 302.713 513.008 300.71 514.234 298.202C522.18 281.954 486.701 287.681 485.069 274.104C483.677 262.548 490.923 258.848 499.639 257.123Z" fill="#0A383D"/>
<path d="M219.037 257.048C224.304 256.835 239.455 259.261 239.514 265.504C238.034 267.107 238.114 267.019 236.032 267.738C230.752 263.543 226.92 261.527 219.906 262.086C214.425 262.469 209.343 265.088 205.85 269.331C202.35 273.613 200.741 279.136 201.395 284.63C202.055 290.155 204.901 295.186 209.298 298.596C215.074 303.041 221.026 302.798 227.84 301.981C231.139 300.574 234.908 297.252 237.288 297C239.161 297.698 239.228 297.337 239.842 298.655C238.15 310.004 201.145 314.619 196.052 287.184C194.737 280.352 196.23 273.279 200.192 267.561C205.123 260.552 211.028 258.422 219.037 257.048Z" fill="#0A383D"/>
<path d="M320.218 257.32C322.891 257.498 323.881 257.053 325.466 258.574C326.534 267.324 325.764 292.311 325.711 302C334.534 302.241 343.128 301.517 351.951 302.204C353.814 303.576 353.58 304.435 354.391 307.013L320.152 307.024L320.218 257.32Z" fill="#0A383D"/>
<path d="M105.22 0.0442735C106.748 -0.00272654 106.029 -0.153728 107.433 0.602272C110.787 9.22027 103.102 57.1523 100.822 68.7873C98.6495 79.8813 94.5875 92.4483 93.9815 103.995C93.0155 122.396 110.78 124.629 123.799 130.186C155.538 144.815 161.659 169.943 160.477 201.523C138.191 168.52 104.124 152.837 64.4165 159.211C62.6445 159.518 60.8775 159.854 59.1165 160.217C33.9955 165.443 14.3685 180.576 0.48647 201.747C0.30147 193.562 0.185472 182.744 1.63547 174.899C5.55547 154.024 20.1495 136.741 40.0715 129.379C59.5455 122.182 69.8165 120.592 65.6365 96.1613C58.7755 56.0633 47.4825 6.25927 105.22 0.0442735Z" fill="#032228"/>
<path d="M109.142 267.911C101.882 282.653 84.4736 292.133 68.4606 293.239C52.2986 294.194 36.4216 288.673 24.3376 277.898C-13.7516 244.298 3.73956 198.924 44.7566 178.684C49.1176 176.532 59.5036 173.003 64.0226 172.785C38.7726 184.983 24.3596 206.187 29.2926 234.577C35.6036 270.901 88.0506 292.211 110.456 256.822C110.806 255.636 111.173 253.644 112.07 252.972C114.084 255.39 110.314 265.299 109.142 267.911Z" fill="url(#paint0_linear_207_116)"/>
<path d="M110.458 256.823C110.808 255.637 111.175 253.645 112.072 252.973C114.086 255.391 110.316 265.3 109.144 267.912C105.55 264.792 111.175 262.257 110.458 256.823Z" fill="#1E5259"/>
<path d="M109.521 228.973C112.219 229.479 112.816 229.671 114.46 232.146C115.995 232.374 115.329 232.518 116.569 232.015C136.294 246.588 135.158 284.834 120.628 302.831C108.505 317.846 93.248 327.353 73.665 327.111C39.441 323.926 10.602 300.991 2.176 267.232C1.317 263.793 0.673 260.215 0 256.732C1.633 261.115 3.219 265.541 5.471 269.646C13.656 284.903 27.672 296.194 44.321 300.941C89.507 313.87 133.468 271.712 109.521 228.973Z" fill="#417176"/>
<path d="M114.463 232.147C115.998 232.375 115.332 232.519 116.572 232.016C136.297 246.589 135.161 284.835 120.631 302.832C108.508 317.847 93.251 327.354 73.668 327.112C79.772 318.615 100.216 309.139 108.54 298.166C119.747 283.391 125.588 268.077 121.052 249.091C119.866 244.123 114.469 236.095 114.463 232.147Z" fill="#1E5259"/>
<path d="M49.3736 257.115L48.9086 256.635C43.8386 251.329 39.4856 241.584 38.4696 234.406C33.4886 199.21 65.3536 171.091 98.6766 172.538C126.129 180.018 147.444 196.882 156.716 224.541L154.356 224.809C146.122 212.68 138.863 204.729 124.993 199.044C96.0736 187.192 58.2706 198.939 51.3796 232.265C49.4446 241.625 51.2376 252.38 56.8066 260.414C58.4316 262.729 60.1846 264.951 62.0576 267.071C56.5296 263.722 53.7716 262.09 49.3736 257.115Z" fill="#1E5259"/>
<path d="M49.3736 257.115L48.9086 256.635C43.8386 251.329 39.4856 241.584 38.4696 234.406C33.4886 199.21 65.3536 171.091 98.6766 172.538C77.8606 188.344 51.0106 196.712 46.6076 227.787C44.9756 239.313 47.9496 246.226 49.3736 257.115Z" fill="#417176"/>
<path d="M60.1562 222.837C68.3462 211.127 77.4463 205.136 91.6393 202.58C123.524 196.839 153.822 221.962 158.995 252.921C159.512 256.026 159.835 258.79 159.33 261.904C155.405 290.851 132.915 315.229 105.009 323.07C113.007 318.612 118.409 314.968 124.455 307.97C155.178 272.407 135.193 216.5 87.0782 212.607L79.2152 212.955C71.2152 215.393 66.4332 217.065 60.1562 222.837Z" fill="url(#paint1_linear_207_116)"/>
<path d="M60.1562 222.837C68.3462 211.127 77.4463 205.136 91.6393 202.58C123.524 196.839 153.822 221.962 158.995 252.921C159.512 256.026 159.835 258.79 159.33 261.904C157.127 260.312 156.362 257.293 154.956 254.994C144.117 237.256 129.896 218.778 109.475 211.815C106.44 210.78 104.554 209.841 101.396 209.936C97.4772 209.99 88.9922 209.506 86.1462 211.76L87.0782 212.607L79.2152 212.955C71.2152 215.393 66.4332 217.065 60.1562 222.837Z" fill="#417176"/>
<path d="M79.2147 212.954L78.9688 212.278C83.0897 208.771 96.0967 209.176 101.396 209.935C97.4767 209.989 88.9917 209.505 86.1457 211.759L87.0777 212.606L79.2147 212.954Z" fill="#1E5259"/>
<path d="M109.522 228.973C108.808 227.863 106.589 225.195 107.115 224.125C109.442 224.939 114.871 230.056 116.57 232.015C115.33 232.518 115.996 232.374 114.461 232.146C112.817 229.671 112.22 229.479 109.522 228.973Z" fill="#1F2633"/>
<defs>
<linearGradient id="paint0_linear_207_116" x1="56.8129" y1="291.675" x2="54.3932" y2="175.149" gradientUnits="userSpaceOnUse">
<stop stop-color="#22575E"/>
<stop offset="1" stop-color="#4E7B7D"/>
</linearGradient>
<linearGradient id="paint1_linear_207_116" x1="93.3031" y1="268.09" x2="153.326" y2="249.575" gradientUnits="userSpaceOnUse">
<stop stop-color="#1C3F44"/>
<stop offset="1" stop-color="#215B61"/>
</linearGradient>
</defs>
</svg>
