<svg width="1024" height="334" viewBox="0 0 1024 334" fill="none" xmlns="http://www.w3.org/2000/svg">
<path fill-rule="evenodd" clip-rule="evenodd" d="M358.04 74.7089C394.789 74.3033 397.265 82.8481 397.027 120.076C396.977 128.105 397.028 137.003 397.023 145.105L397.057 233.991L375.152 233.994C375.159 227.044 375.969 177.444 374.447 175.388L371.841 175.169L351.681 175.123C351.438 194.522 351.67 214.57 351.679 234.016L330.176 234.06L330.246 145.364C330.222 132.556 330.149 119.579 330.229 106.779C330.357 86.5863 335.211 76.4542 356.147 74.7313L358.04 74.7089ZM364.593 94.3583C362.407 94.3408 360.222 94.4374 358.046 94.6483C354.153 96.8934 352.474 98.8392 352.219 103.695C351.342 120.415 351.832 138.307 351.932 154.996L370.247 154.947C373.012 154.897 372.925 155.389 374.662 153.994C375.301 145.889 376.524 102.161 372.793 97.7313C370.695 95.2392 367.651 94.3769 364.593 94.3583Z" fill="#0B203C"/>
<path fill-rule="evenodd" clip-rule="evenodd" d="M248.894 74.6448C307.17 74.3767 316.599 67.6015 314.598 133.338C313.366 173.809 309.355 175.39 270.622 175.1L270.618 189.279L270.661 233.726L248.77 233.639L248.894 74.6448ZM291.761 102.141C291.006 92.1931 278.234 94.4855 271.078 94.5403L271.06 155.864C276.929 155.937 285.288 156.883 290.114 153.873C294.645 146.129 292.526 112.233 291.761 102.141Z" fill="#0B203C"/>
<path d="M462.925 74.9331L484.444 74.9145C482.922 86.795 480.392 100.413 478.464 112.376L458.719 233.995L432.283 234.009C424.107 180.824 414.796 128.392 406.898 75.0392C413.403 74.7 421.939 74.9366 428.597 74.925C429.626 89.3291 434.11 115.807 436.371 130.633C439.167 148.965 441.977 175.09 445.674 192.54C451.111 153.291 456.861 114.087 462.925 74.9331Z" fill="#0B203C"/>
<path d="M764.8 74.7569L767.254 74.6602C768.876 76.4215 770.756 93.2735 771.352 97.2718C776.269 129.151 780.845 161.082 785.077 193.061C787.419 182.247 789.439 164.918 791.097 153.596C794.835 127.327 798.784 101.091 802.944 74.8874L824.71 74.7849C821.736 91.6393 819.059 108.744 816.285 125.648C809.199 160.333 805.39 199 798.186 233.983L772.082 234.035L746.031 74.8257C752.301 74.9772 758.529 74.8466 764.8 74.7569Z" fill="#0B203C"/>
<path d="M973.105 74.7069L977.431 74.6242C1011.42 74.1568 1011.83 88.716 1011.66 118.362L989.73 118.33C989.811 114.192 989.868 107.444 989.845 103.772C989.753 91.1674 973.954 91.8947 969.938 99.1522C967.265 103.972 968.183 126.12 968.963 131.678C970.076 139.567 994.492 148.153 1000.52 152.913C1005.99 156.188 1009.72 160.078 1010.81 166.534C1011.63 171.392 1012.08 175.974 1011.77 180.627C1010.34 202.241 1018.08 227.934 991.061 233.738C956.583 236.233 946.888 230.729 947.037 194.872C953.921 194.645 961.528 194.787 968.47 194.771L968.447 196.659C968.332 210.759 974.654 220.771 987.814 210.856C991.554 208.036 989.868 179.745 989.489 174.671C967.919 152.461 943.503 164.875 947.106 120.774C948.907 98.7547 941.782 77.0931 973.105 74.7069Z" fill="#0B203C"/>
<path d="M628.439 74.7321L632.279 74.6645C667.435 74.2157 666.353 92.0598 666.035 121.119L644.237 121.088C644.354 116.126 645.48 100.739 642.214 97.6702C635.989 91.9281 622.568 92.6322 622.468 103.821C622.166 137.826 621.6 172.082 622.825 206.049C623.151 215.116 636.6 215.84 641.745 211.649C644.781 209.175 644.307 199.924 644.362 196.167C644.658 195.043 644.5 195.553 645.436 194.565C650.204 193.992 660.825 194.41 666.049 194.484C666.193 213.582 666.334 232.406 642.023 234.136C619.558 235.736 601.206 232.638 600.829 205.23C600.44 176.956 600.718 148.096 600.655 119.767C600.653 95.3225 598.735 76.4282 628.439 74.7321Z" fill="#0B203C"/>
<path d="M683.116 74.8831L737.086 74.875V94.534L704.683 94.5387L704.659 141.859L733.084 141.847L733.17 161.738L704.694 161.754L704.671 206.958L704.691 213.845L737.039 213.834L737.091 233.977L683.079 233.982C682.512 181.251 682.933 127.655 683.116 74.8831Z" fill="#0B203C"/>
<path d="M872.348 75.0362C892.967 74.5221 914.524 75.07 935.352 74.7891C935.339 81.3529 935.194 87.9879 935.097 94.5565L914.497 94.5437C913.379 131.117 914.381 175.32 914.358 212.401L914.464 233.985L892.921 233.95L892.867 94.5367L872.35 94.5425L872.348 75.0362Z" fill="#0B203C"/>
<path d="M497.281 75.0071L518.709 74.9453L518.638 213.822L548.317 213.865L548.351 233.997L497.286 234.011L497.281 75.0071Z" fill="#0B203C"/>
<path d="M837.973 74.9509L859.134 74.8203L859.143 234.014L838.005 233.955L837.973 74.9509Z" fill="#0B203C"/>
<path d="M578.025 74.7512C580.59 74.6416 580.374 74.1858 581.857 75.4588C582.795 85.0592 582.053 114.009 582.05 125.747L582.117 234.025L565.199 234.019C563.477 234.104 563.449 234.18 561.716 233.651C560.435 230.978 561.152 87.6633 561.163 74.8398L578.025 74.7512Z" fill="#0B203C"/>
<path fill-rule="evenodd" clip-rule="evenodd" d="M335.534 266.683C342.676 266.122 347.626 265.782 354.193 269.346C359.85 272.392 364.041 277.666 365.79 283.943C369.87 298.56 361.288 309.79 347.736 313.798C341.349 314.872 335.384 314.741 329.451 311.771C323.815 308.949 319.526 303.936 317.548 297.857C312.62 282.645 321.6 271.183 335.534 266.683ZM357.441 287.177C355.761 278.172 347.36 272.24 338.607 273.878C332.862 274.952 328.12 279.125 326.189 284.806C324.258 290.486 325.437 296.798 329.274 301.334C333.112 305.87 339.018 307.931 344.739 306.731C353.456 304.904 359.121 296.183 357.441 287.177Z" fill="#0B203C"/>
<path fill-rule="evenodd" clip-rule="evenodd" d="M470.857 266.584C477.303 266.057 482.106 265.99 488.068 269.01C493.723 271.835 498.03 276.859 500.021 282.953C504.829 297.965 496.347 309.49 482.437 313.904C475.796 315.03 469.012 314.517 463.033 311.146C457.629 308.127 453.641 303.019 451.963 296.971C450.224 290.752 450.992 284.081 454.095 278.441C458.001 271.509 463.647 268.647 470.857 266.584ZM492.11 287.018C490.333 278.114 481.978 272.307 473.304 273.945C467.523 275.038 462.766 279.271 460.875 285.007C458.982 290.743 460.25 297.086 464.186 301.585C468.122 306.084 474.112 308.035 479.842 306.685C488.438 304.659 493.889 295.922 492.11 287.018Z" fill="#0B203C"/>
<path fill-rule="evenodd" clip-rule="evenodd" d="M530.223 266.834C544.238 266.65 572.382 263.154 568.478 287.105C567.578 292.625 563.497 295.448 559.249 298.28C562.075 302.766 567.94 309.097 568.094 313.124C565.84 314.498 564.718 313.964 561.725 313.934C558.503 313.232 552.933 303.165 550.714 299.742L538.473 299.735L538.469 313.838L529.659 313.863C529.662 307.517 528.944 270.594 530.223 266.834ZM557.387 290.17C568.219 273.833 548.099 274.109 538.653 274.341L538.546 292.369C545.636 292.475 551.143 293.392 557.387 290.17Z" fill="#0B203C"/>
<path d="M608.729 266.605C618.19 265.916 621.498 266.262 630.139 270.091L627.262 276.968C621.156 274.074 606.801 269.937 604.328 279.555C607.09 288.503 630.951 285.885 632.258 298.875C633.447 310.681 623.553 313.452 614.531 314.58C609.475 314.514 598.408 313.319 595.597 308.444C595.867 306.271 595.933 306.218 597.318 304.473C602.014 302.334 610.283 308.774 616.306 307.303C620.243 306.34 624.552 305.007 623.162 299.606C618.763 294.552 610.177 294.632 604.51 291.619C589.656 283.72 594.637 270.932 608.729 266.605Z" fill="#0B203C"/>
<path d="M268.155 266.601C268.806 266.552 269.458 266.508 270.111 266.469C279.852 265.875 284.531 267.246 291.813 273.851L286.425 279.188C277.517 272.163 265.843 270.427 259.671 282.087C257.391 286.425 256.968 291.534 258.501 296.201C262.084 307.43 272.471 308.782 282.026 305.084C283.775 303.543 284.056 303.236 286.09 302.196C289.205 302.933 289.669 304.274 292.368 306.903C282.946 314.53 271.992 317.539 260.833 311.432C255.358 308.467 251.27 303.384 249.48 297.317C244.884 281.756 253.915 270.729 268.155 266.601Z" fill="#0B203C"/>
<path d="M395.731 266.723L404.277 266.793L404.299 306.358L428.408 306.482C428.517 308.703 428.488 311.56 428.521 313.813C418.237 314.168 406.079 313.862 395.643 313.88C395.544 298.161 395.574 282.442 395.731 266.723Z" fill="#0B203C"/>
<path d="M107.82 20.8024C108.611 18.886 109.159 17.373 110.286 15.5977C119.422 38.3842 125.383 51.1168 137.966 72.6863C161.287 112.661 197.476 148.681 206.711 194.788C207.375 198.102 208.834 206.889 208.55 209.957C207.249 213.801 208.452 214.93 206.156 218.199C204.07 217.959 198.547 212.719 196.421 210.948C191.957 167.875 169.604 142.191 145.623 107.548C135.037 92.4794 125.395 76.7673 116.752 60.5027C122.87 97.2388 138.66 114.626 159.078 144.447C164.029 151.678 172.049 164.133 175.252 172.236C196.194 209.284 186.85 264.322 147.992 285.172C139.455 289.753 128.94 294.01 119.173 294.444C96.8637 298.663 68.7542 287.102 54.2558 270.049C46.5292 263.844 38.5465 246.674 36.3168 236.745C29.5135 206.461 38.6117 181.913 53.8518 156.536L54.2989 157.844C56.0372 162.925 59.3847 167.793 63.0489 171.752C56.5507 257.553 136.604 270.468 142.607 219.096C141.442 201.142 134.566 191.693 125.3 176.897C114.331 159.384 102.841 142.86 95.4642 123.381C81.5398 86.6161 92.2378 54.8399 107.82 20.8024Z" fill="url(#paint0_linear_204_96)"/>
<path d="M53.8518 156.535L54.2989 157.843C56.0372 162.924 59.3847 167.792 63.0489 171.751C56.5507 257.552 136.604 270.467 142.607 219.094L144.946 217.993C145.405 226.552 146.432 234.938 144.92 243.601C138.508 280.307 94.2847 294.357 64.5323 275.749C61.9847 274.155 56.8884 270.859 54.2558 270.048C46.5292 263.843 38.5465 246.673 36.3168 236.744C29.5135 206.46 38.6117 181.912 53.8518 156.535Z" fill="url(#paint1_linear_204_96)"/>
<path d="M107.82 20.8024C108.61 18.886 109.159 17.373 110.286 15.5977C119.421 38.3842 125.383 51.1168 137.966 72.6863C161.286 112.661 197.475 148.681 206.711 194.788C207.375 198.102 208.834 206.889 208.549 209.957C207.249 213.801 208.452 214.929 206.156 218.199C204.07 217.959 198.547 212.719 196.42 210.948C191.956 167.875 169.603 142.191 145.623 107.548C135.036 92.4794 125.394 76.7673 116.752 60.5027C122.87 97.2388 138.66 114.626 159.078 144.447C164.028 151.678 172.048 164.133 175.252 172.236L173.754 171.782C173.326 171.046 171.912 168.599 171.268 168.418C165.905 166.918 158.76 167.245 153.468 165.616C151.846 165.116 152.096 164.988 150.032 164.562C148.854 166.638 151.302 166.526 151.727 170.283C151.592 170.203 151.457 170.122 151.322 170.041C126.638 132.779 96.8483 96.0172 103.505 48.2329C104.769 39.1593 108.522 25.0093 107.82 20.8024Z" fill="url(#paint2_linear_204_96)"/>
<path d="M144.948 217.992C147.828 224.014 144.774 237.001 148.311 240.201C151.353 240.157 163.948 228.761 167.293 226.608C168.939 225.548 168.406 221.004 168.394 218.63L168.876 218.997C171.125 236.174 166.708 255.939 155.786 269.336C142.402 285.751 131.52 289.806 112.322 294.18L119.175 294.443C96.8657 298.661 68.7562 287.1 54.2578 270.048C56.8904 270.859 61.9867 274.154 64.5343 275.749C94.2867 294.356 138.51 280.307 144.922 243.601C146.434 234.938 145.407 226.552 144.948 217.992Z" fill="#216B77"/>
<path d="M79.4001 77.1719C78.4745 85.2908 78.4733 92.167 78.9728 100.359C77.7293 102.412 72.9171 110.752 71.3394 111.726C68.2446 117.011 64.3347 122.643 60.7555 127.655C36.9459 160.993 15.8387 197.548 26.7731 239.882C32.5051 262.334 46.8824 281.602 66.7612 293.475C86.5317 305.093 110.125 308.306 132.276 302.396C154.218 296.636 172.952 282.337 184.31 262.68C194.058 245.977 196.926 229.966 196.422 210.946C198.548 212.718 204.072 217.958 206.157 218.198C208.453 214.928 207.251 213.8 208.551 209.956C208.658 210.976 208.734 211.999 208.777 213.024C210.157 240.291 200.47 266.958 181.918 286.969C164.395 306.071 139.928 317.309 114.036 318.148C87.8847 319.242 62.4089 309.669 43.4336 291.62C23.6026 273.01 11.9882 247.263 11.1534 220.065C10.0974 185.491 26.6392 154.745 45.8543 127.307C49.0597 122.731 56.8003 110.806 60.2083 107.196C66.434 97.0873 73.207 87.2946 79.4001 77.1719Z" fill="url(#paint3_linear_204_96)"/>
<path d="M79.3989 77.1719C78.4732 85.2908 78.4721 92.167 78.9716 100.359C77.7281 102.412 72.9158 110.752 71.3382 111.726C70.9295 108.699 73.583 107.562 72.4058 105.358C70.5068 101.801 69.1422 103.07 69.3925 98.964C65.5386 99.0736 64.6187 105.35 60.207 107.196C66.4328 97.0873 73.2057 87.2946 79.3989 77.1719Z" fill="#216B77"/>
<path d="M53.8516 156.533C58.0828 148.79 70.6891 130.689 76.7146 123.379C70.341 139.747 64.6799 153.939 63.0487 171.748C59.3845 167.79 56.037 162.922 54.2987 157.841L53.8516 156.533Z" fill="#216B77"/>
<defs>
<linearGradient id="paint0_linear_204_96" x1="94.8353" y1="160.762" x2="180.339" y2="154.636" gradientUnits="userSpaceOnUse">
<stop stop-color="#091E3C"/>
<stop offset="1" stop-color="#1E6372"/>
</linearGradient>
<linearGradient id="paint1_linear_204_96" x1="90.0363" y1="282.215" x2="88.8325" y2="158.743" gradientUnits="userSpaceOnUse">
<stop stop-color="#061335"/>
<stop offset="1" stop-color="#195667"/>
</linearGradient>
<linearGradient id="paint2_linear_204_96" x1="195.662" y1="222.91" x2="101.539" y2="24.7928" gradientUnits="userSpaceOnUse">
<stop stop-color="#1D6271"/>
<stop offset="1" stop-color="#28878D"/>
</linearGradient>
<linearGradient id="paint3_linear_204_96" x1="38.1796" y1="284.718" x2="149.498" y2="164.565" gradientUnits="userSpaceOnUse">
<stop stop-color="#071536"/>
<stop offset="1" stop-color="#195565"/>
</linearGradient>
</defs>
</svg>
