<svg width="1062" height="346" viewBox="0 0 1062 346" fill="none" xmlns="http://www.w3.org/2000/svg">
<path d="M371.327 77.393C409.44 76.9727 412.008 85.8245 411.762 124.39C411.709 132.708 411.763 141.925 411.758 150.319L411.792 242.398L389.075 242.402C389.082 235.204 389.922 183.821 388.344 181.69L385.641 181.462L364.732 181.415C364.481 201.511 364.721 222.279 364.73 242.423L342.43 242.47L342.502 150.586C342.477 137.318 342.402 123.876 342.485 110.616C342.617 89.6973 347.651 79.2012 369.364 77.4164L371.327 77.393ZM378.124 97.7484C375.857 97.7303 373.591 97.8306 371.334 98.0492C367.296 100.375 365.555 102.391 365.29 107.421C364.38 124.742 364.89 143.277 364.993 160.565L383.988 160.515C386.855 160.463 386.765 160.972 388.566 159.527C389.229 151.131 390.497 105.834 386.628 101.244C384.452 98.6618 381.296 97.7678 378.124 97.7484Z" fill="#0B203C"/>
<path d="M258.129 77.328C318.568 77.0502 328.347 70.0323 326.271 138.131C324.994 180.055 320.834 181.693 280.663 181.392L280.66 196.081L280.704 242.125L258 242.035L258.129 77.328ZM302.586 105.812C301.803 95.5071 288.558 97.8826 281.137 97.9393L281.117 161.465C287.204 161.541 295.873 162.521 300.879 159.403C305.578 151.38 303.379 116.267 302.586 105.812Z" fill="#0B203C"/>
<path d="M480.106 77.6273L502.423 77.608C500.845 89.9154 498.221 104.023 496.222 116.415L475.744 242.404L448.327 242.418C439.847 187.322 430.19 133.007 422 77.7372C428.746 77.3858 437.598 77.6309 444.504 77.6189C445.571 92.5406 450.221 119.97 452.566 135.329C455.467 154.319 458.38 181.382 462.215 199.459C467.853 158.8 473.817 118.188 480.106 77.6273Z" fill="#0B203C"/>
<path d="M793.18 77.4439L795.726 77.3438C797.408 79.1684 799.357 96.6259 799.975 100.768C805.075 133.792 809.82 166.87 814.21 199.998C816.639 188.796 818.734 170.844 820.453 159.115C824.33 131.903 828.425 104.724 832.74 77.5792L855.314 77.473C852.229 94.9329 849.453 112.653 846.575 130.163C839.227 166.095 835.276 206.151 827.805 242.39L800.732 242.445L773.715 77.5152C780.218 77.6722 786.676 77.5369 793.18 77.4439Z" fill="#0B203C"/>
<path d="M1009.22 77.39L1013.7 77.3043C1048.95 76.82 1049.38 91.9023 1049.2 122.614L1026.46 122.58C1026.54 118.293 1026.6 111.303 1026.58 107.499C1026.48 94.4418 1010.1 95.1953 1005.93 102.714C1003.16 107.707 1004.11 130.65 1004.92 136.408C1006.07 144.581 1031.4 153.475 1037.64 158.406C1043.32 161.799 1047.19 165.829 1048.32 172.516C1049.17 177.549 1049.64 182.296 1049.32 187.115C1047.83 209.506 1055.86 236.122 1027.84 242.135C992.081 244.719 982.026 239.018 982.181 201.873C989.32 201.637 997.209 201.785 1004.41 201.768L1004.38 203.724C1004.27 218.33 1010.82 228.702 1024.47 218.431C1028.35 215.51 1026.6 186.202 1026.21 180.946C1003.84 157.937 978.516 170.798 982.252 125.112C984.12 102.302 976.731 79.8618 1009.22 77.39Z" fill="#0B203C"/>
<path d="M651.761 77.4184L655.743 77.3484C692.204 76.8835 691.082 95.3687 690.752 125.472L668.145 125.44C668.267 120.3 669.434 104.36 666.047 101.181C659.591 95.2322 645.671 95.9616 645.568 107.553C645.255 142.78 644.668 178.266 645.938 213.454C646.276 222.846 660.224 223.596 665.56 219.255C668.709 216.691 668.218 207.108 668.275 203.216C668.582 202.052 668.418 202.58 669.389 201.557C674.333 200.963 685.348 201.396 690.766 201.472C690.915 221.257 691.062 240.758 665.848 242.55C642.55 244.206 623.517 240.998 623.126 212.605C622.723 183.315 623.011 153.418 622.945 124.071C622.943 98.7486 620.954 79.1754 651.761 77.4184Z" fill="#0B203C"/>
<path d="M708.467 77.5748L764.441 77.5664V97.9317L730.835 97.9366L730.81 146.957L760.29 146.945L760.379 167.551L730.847 167.566L730.823 214.395L730.843 221.529L764.392 221.518L764.446 242.385L708.429 242.39C707.841 187.764 708.278 132.243 708.467 77.5748Z" fill="#0B203C"/>
<path d="M904.719 77.7326C926.103 77.2 948.461 77.7676 970.062 77.4766C970.047 84.2763 969.897 91.1497 969.796 97.9542L948.432 97.9409C947.272 135.828 948.312 181.619 948.288 220.033L948.398 242.392L926.056 242.355L926 97.9337L904.721 97.9397L904.719 77.7326Z" fill="#0B203C"/>
<path d="M515.734 77.7007L537.958 77.6367L537.884 221.503L568.664 221.548L568.7 242.403L515.739 242.418L515.734 77.7007Z" fill="#0B203C"/>
<path d="M869.07 77.6431L891.017 77.5078L891.026 242.421L869.104 242.36L869.07 77.6431Z" fill="#0B203C"/>
<path d="M599.474 77.437C602.135 77.3235 601.911 76.8513 603.449 78.1699C604.422 88.1153 603.653 118.105 603.649 130.265L603.718 242.433L586.173 242.427C584.387 242.515 584.358 242.594 582.561 242.045C581.232 239.276 581.975 90.813 581.987 77.5287L599.474 77.437Z" fill="#0B203C"/>
<path d="M347.986 276.266C355.393 275.685 360.527 275.333 367.339 279.024C373.205 282.18 377.551 287.644 379.365 294.146C383.597 309.288 374.697 320.922 360.642 325.073C354.018 326.187 347.831 326.051 341.677 322.975C335.832 320.051 331.384 314.858 329.333 308.561C324.222 292.802 333.535 280.928 347.986 276.266ZM370.707 297.496C368.964 288.168 360.252 282.022 351.174 283.719C345.215 284.831 340.296 289.156 338.295 295.04C336.292 300.924 337.514 307.463 341.494 312.161C345.474 316.861 351.599 318.996 357.533 317.754C366.573 315.86 372.449 306.826 370.707 297.496Z" fill="#0B203C"/>
<path d="M488.331 276.16C495.016 275.614 499.997 275.545 506.181 278.674C512.046 281.601 516.511 286.805 518.576 293.118C523.562 308.669 514.766 320.608 500.341 325.181C493.453 326.347 486.417 325.817 480.216 322.324C474.612 319.197 470.475 313.905 468.735 307.639C466.931 301.197 467.728 294.286 470.947 288.444C474.998 281.263 480.854 278.298 488.331 276.16ZM510.372 297.328C508.529 288.105 499.864 282.088 490.868 283.786C484.872 284.918 479.941 289.303 477.979 295.245C476.016 301.188 477.33 307.758 481.412 312.419C485.494 317.08 491.707 319.102 497.649 317.702C506.565 315.604 512.217 306.553 510.372 297.328Z" fill="#0B203C"/>
<path d="M549.899 276.423C564.434 276.232 593.623 272.609 589.574 297.421C588.641 303.14 584.409 306.065 580.003 308.998C582.935 313.646 589.017 320.204 589.177 324.376C586.838 325.798 585.675 325.245 582.571 325.214C579.23 324.487 573.452 314.058 571.15 310.512L558.456 310.505L558.451 325.114L549.316 325.139C549.319 318.565 548.572 280.319 549.899 276.423ZM578.072 300.597C589.306 283.672 568.439 283.959 558.643 284.199L558.531 302.874C565.885 302.984 571.596 303.934 578.072 300.597Z" fill="#0B203C"/>
<path d="M631.318 276.185C641.129 275.472 644.561 275.83 653.522 279.797L650.539 286.92C644.205 283.923 629.318 279.638 626.753 289.601C629.618 298.87 654.365 296.158 655.72 309.615C656.953 321.845 646.692 324.716 637.336 325.884C632.092 325.816 620.614 324.578 617.699 319.528C617.979 317.277 618.047 317.222 619.483 315.414C624.353 313.198 632.93 319.87 639.176 318.346C643.259 317.348 647.728 315.967 646.286 310.372C641.724 305.136 632.819 305.22 626.942 302.098C611.537 293.916 616.703 280.668 631.318 276.185Z" fill="#0B203C"/>
<path d="M278.108 276.181C278.783 276.13 279.459 276.084 280.136 276.043C290.238 275.429 295.091 276.849 302.644 283.691L297.055 289.22C287.817 281.942 275.71 280.144 269.309 292.223C266.944 296.717 266.506 302.009 268.095 306.844C271.812 318.477 282.584 319.877 292.493 316.046C294.307 314.449 294.599 314.132 296.708 313.055C299.939 313.818 300.42 315.207 303.219 317.931C293.448 325.832 282.087 328.949 270.514 322.622C264.836 319.55 260.596 314.285 258.74 308C253.973 291.88 263.339 280.457 278.108 276.181Z" fill="#0B203C"/>
<path d="M410.416 276.305L419.28 276.377L419.302 317.364L444.305 317.493C444.419 319.793 444.388 322.753 444.422 325.087C433.757 325.454 421.149 325.138 410.325 325.156C410.222 308.872 410.253 292.588 410.416 276.305Z" fill="#0B203C"/>
<path d="M111.82 21.548C112.64 19.5627 113.209 17.9953 114.378 16.1562C123.852 39.7614 130.035 52.9515 143.085 75.296C167.271 116.707 204.803 154.021 214.381 201.784C215.069 205.218 216.583 214.32 216.288 217.498C214.939 221.481 216.186 222.65 213.805 226.037C211.642 225.788 205.914 220.36 203.709 218.525C199.079 173.905 175.897 147.297 151.026 111.41C140.047 95.8002 130.047 79.5236 121.083 62.6747C127.429 100.731 143.805 118.742 164.98 149.635C170.115 157.126 178.432 170.028 181.754 178.422C203.473 216.802 193.783 273.817 153.483 295.415C144.629 300.161 133.724 304.571 123.594 305.021C100.457 309.392 71.3046 297.415 56.2682 279.75C48.2549 273.322 39.9759 255.535 37.6635 245.249C30.6077 213.877 40.0435 188.447 55.8492 162.159L56.3129 163.514C58.1157 168.777 61.5874 173.82 65.3876 177.921C58.6483 266.805 141.672 280.183 147.898 226.965C146.69 208.367 139.559 198.578 129.949 183.251C118.573 165.109 106.657 147.991 99.0058 127.812C84.5647 89.7262 95.6597 56.8084 111.82 21.548Z" fill="url(#paint0_linear_204_96)"/>
<path d="M55.8492 162.16L56.3129 163.515C58.1157 168.779 61.5874 173.821 65.3876 177.922C58.6483 266.806 141.672 280.185 147.898 226.967L150.324 225.826C150.8 234.693 151.865 243.38 150.296 252.355C143.646 290.379 97.7825 304.934 66.926 285.658C64.2839 284.006 58.9984 280.592 56.2682 279.751C48.2549 273.324 39.9759 255.536 37.6635 245.25C30.6077 213.878 40.0435 188.449 55.8492 162.16Z" fill="url(#paint1_linear_204_96)"/>
<path d="M111.82 21.548C112.64 19.5627 113.208 17.9953 114.377 16.1562C123.852 39.7614 130.034 52.9515 143.084 75.296C167.27 116.707 204.802 154.021 214.381 201.784C215.069 205.218 216.582 214.32 216.287 217.498C214.939 221.481 216.186 222.65 213.805 226.037C211.642 225.788 205.913 220.36 203.708 218.525C199.079 173.905 175.896 147.297 151.025 111.41C140.046 95.8002 130.047 79.5236 121.083 62.6747C127.429 100.731 143.804 118.742 164.98 149.635C170.114 157.126 178.432 170.028 181.754 178.422L180.201 177.952C179.757 177.189 178.291 174.654 177.623 174.467C172.061 172.913 164.65 173.252 159.162 171.564C157.48 171.046 157.739 170.913 155.598 170.473C154.376 172.623 156.916 172.507 157.356 176.399C157.216 176.316 157.076 176.233 156.936 176.148C131.336 137.548 100.441 99.4651 107.345 49.964C108.656 40.5644 112.548 25.906 111.82 21.548Z" fill="url(#paint2_linear_204_96)"/>
<path d="M150.326 225.824C153.312 232.062 150.144 245.516 153.813 248.83C156.968 248.786 170.03 236.98 173.5 234.749C175.206 233.652 174.654 228.945 174.641 226.485L175.141 226.865C177.474 244.66 172.892 265.135 161.565 279.013C147.685 296.018 136.399 300.218 116.489 304.75L123.595 305.021C100.459 309.391 71.3059 297.415 56.2695 279.75C58.9998 280.59 64.2853 284.004 66.9274 285.656C97.7839 304.932 143.648 290.377 150.298 252.353C151.866 243.378 150.801 234.691 150.326 225.824Z" fill="#216B77"/>
<path d="M82.3447 79.9453C81.3847 88.3559 81.3835 95.4792 81.9015 103.966C80.6119 106.092 75.6211 114.732 73.9848 115.741C70.7752 121.216 66.7202 127.051 63.0082 132.242C38.315 166.778 16.4245 204.647 27.7646 248.501C33.7094 271.76 48.6202 291.721 69.2367 304.019C89.7409 316.055 114.209 319.383 137.183 313.261C159.939 307.294 179.368 292.481 191.147 272.118C201.257 254.815 204.232 238.229 203.709 218.526C205.914 220.362 211.643 225.79 213.806 226.038C216.187 222.651 214.94 221.482 216.289 217.5C216.4 218.556 216.478 219.617 216.523 220.678C217.954 248.925 207.907 276.55 188.667 297.28C170.493 317.068 145.119 328.71 118.266 329.58C91.1441 330.712 64.7229 320.796 45.0435 302.098C24.4765 282.82 12.4312 256.147 11.5653 227.973C10.4701 192.156 27.6258 160.305 47.554 131.882C50.8784 127.141 58.9061 114.788 62.4406 111.048C68.8974 100.576 75.9217 90.4317 82.3447 79.9453Z" fill="url(#paint3_linear_204_96)"/>
<path d="M82.3455 79.9453C81.3855 88.3559 81.3843 95.4792 81.9023 103.966C80.6126 106.092 75.6218 114.732 73.9856 115.741C73.5618 112.605 76.3137 111.427 75.0929 109.144C73.1234 105.46 71.7082 106.773 71.9678 102.52C67.9708 102.634 67.0168 109.135 62.4414 111.048C68.8982 100.576 75.9225 90.4317 82.3455 79.9453Z" fill="#216B77"/>
<path d="M55.8516 162.158C60.2398 154.137 73.3139 135.385 79.563 127.812C72.9529 144.769 67.0818 159.471 65.39 177.92C61.5898 173.819 58.1181 168.776 56.3153 163.513L55.8516 162.158Z" fill="#216B77"/>
<defs>
<linearGradient id="paint0_linear_204_96" x1="98.3535" y1="166.536" x2="187.029" y2="160.176" gradientUnits="userSpaceOnUse">
<stop stop-color="#091E3C"/>
<stop offset="1" stop-color="#1E6372"/>
</linearGradient>
<linearGradient id="paint1_linear_204_96" x1="93.3765" y1="292.356" x2="92.1309" y2="164.448" gradientUnits="userSpaceOnUse">
<stop stop-color="#061335"/>
<stop offset="1" stop-color="#195667"/>
</linearGradient>
<linearGradient id="paint2_linear_204_96" x1="202.922" y1="230.917" x2="105.488" y2="25.5956" gradientUnits="userSpaceOnUse">
<stop stop-color="#1D6271"/>
<stop offset="1" stop-color="#28878D"/>
</linearGradient>
<linearGradient id="paint3_linear_204_96" x1="39.5945" y1="294.948" x2="154.902" y2="170.347" gradientUnits="userSpaceOnUse">
<stop stop-color="#071536"/>
<stop offset="1" stop-color="#195565"/>
</linearGradient>
</defs>
</svg>
